<svg xmlns="http://www.w3.org/2000/svg" viewBox="0 0 89.04 89.04"><defs><style>.cls-1{fill:#231f20;}</style></defs><title>Asset 5</title><g id="Layer_2" data-name="Layer 2"><g id="Layer_1-2" data-name="Layer 1"><path class="cls-1" d="M44.52,0A44.52,44.52,0,1,0,89,44.52,44.57,44.57,0,0,0,44.52,0Zm0,83.7A39.18,39.18,0,1,1,83.7,44.52,39.23,39.23,0,0,1,44.52,83.7Z"/><path class="cls-1" d="M55.5,44.52A11,11,0,0,0,42.86,33.67L20.21,20.21,33.67,42.86A11,11,0,0,0,46.18,55.38L68.84,68.84,55.38,46.18A11.07,11.07,0,0,0,55.5,44.52Zm-11,4.71a4.71,4.71,0,1,1,4.71-4.71A4.69,4.69,0,0,1,44.52,49.23Z"/><path class="cls-1" d="M42.83,16.91c0-2.08,0-3.77-.09-5.21h0c.15.53.58,1.76,3.06,8.57h2.25V8.72H46.21v3.19c0,1.89,0,3.6.1,5h0c-.14-.56-.6-1.79-3-8.18H41V20.27h1.86Z"/><path class="cls-1" d="M45.07,73.19c-1.35-.63-1.72-1-1.72-1.86S43.7,70,44.52,70c1.06,0,1.23,1,1.28,1.64h2a3,3,0,0,0-3.28-3.26,3,3,0,0,0-3.28,3.11c0,1.72.79,2.56,2.76,3.5,1.45.68,1.91,1.25,1.91,2.19s-.37,1.5-1.38,1.5-1.45-.84-1.55-1.79H41a3.21,3.21,0,0,0,3.53,3.43c2.44,0,3.57-1.5,3.57-3.33S47.13,74.15,45.07,73.19Z"/></g></g></svg>