<svg xmlns="http://www.w3.org/2000/svg" viewBox="0 0 95.79 95.81"><defs><style>.cls-1{fill:#010101;}.cls-2{fill:#2c2c2c;}.cls-3{fill:#272727;}.cls-4{fill:#666;}.cls-5{fill:#545454;}.cls-6{fill:#848484;}</style></defs><title>Asset 3</title><g id="Layer_2" data-name="Layer 2"><g id="Layer_1-2" data-name="Layer 1"><path class="cls-1" d="M42.37,0a4.28,4.28,0,0,0,1.15.11A39.76,39.76,0,0,1,54.36,2.44,40.83,40.83,0,0,1,80.1,31.86c.15.66.26,1.33.39,2,0,.22.06.43.1.66a7,7,0,0,0-7.31.55c-2.16-10.82-8-19-17.8-24.09A31.75,31.75,0,0,0,30,9.1,33.14,33.14,0,1,0,52.83,71.29l-.28,1.43a22.33,22.33,0,0,0-.29,6.38c0,.2,0,.25-.22.3a41.51,41.51,0,0,1-6.49,1.34A40.6,40.6,0,0,1,5.06,60.13,39.93,39.93,0,0,1,1,49.52,40.38,40.38,0,0,1,0,38.67,39.91,39.91,0,0,1,5,21.07a40.39,40.39,0,0,1,12.65-14,40,40,0,0,1,13.68-6,38.55,38.55,0,0,1,7.14-1c.05,0,.13,0,.15-.06H39c.13.06.26,0,.39,0a3.27,3.27,0,0,0,.71,0h1a2,2,0,0,0,.54,0h.35c.13,0,.26,0,.38,0Z"/><path class="cls-2" d="M40.06,0a1.71,1.71,0,0,1-.74.05s0,0,0,0l0,0Z"/><path class="cls-3" d="M41.59.05C41.4,0,41.21.12,41,0h.55s0,0,0,0Z"/><path class="cls-4" d="M39.33,0a.18.18,0,0,1,0,.05C39.2,0,39.07.13,39,0Z"/><path class="cls-5" d="M41.59.05a.32.32,0,0,1,0-.05h.36s0,0,0,0l0,0Z"/><path class="cls-6" d="M41.95.05a.47.47,0,0,1,0-.05h.36C42.2.13,42.07,0,41.95.05Z"/><path class="cls-1" d="M77.38,40.53c.63.83,1.26,1.65,1.87,2.48,2.62,3.53,5.1,7.15,7.42,10.89a97.31,97.31,0,0,1,5.51,10,42.89,42.89,0,0,1,3,8.3,18.9,18.9,0,0,1-3.37,16.2,17.56,17.56,0,0,1-10.87,7,17.18,17.18,0,0,1-13-2.32A18.83,18.83,0,0,1,59.45,81a19.12,19.12,0,0,1,.34-9.86,56.39,56.39,0,0,1,4.78-11.21A145,145,0,0,1,77.23,40.71Z"/><path class="cls-1" d="M40.29,18.41A22.2,22.2,0,0,0,19,35.53a21.3,21.3,0,0,0-.47,7.06,21.9,21.9,0,0,0,5,12c.37.45.77.86,1.15,1.3a1.88,1.88,0,0,1-1,3A1.73,1.73,0,0,1,22,58.37a25.76,25.76,0,0,1-3.23-4.09,25.41,25.41,0,0,1-4-14.73,25,25,0,0,1,3-11.1,25.57,25.57,0,0,1,13.61-12,24.87,24.87,0,0,1,10.25-1.66,25.66,25.66,0,0,1,15.86,6.28,22,22,0,0,1,2.65,2.67.33.33,0,0,0,.5.09,4.46,4.46,0,0,1,1.66-.62,2.54,2.54,0,0,1,2.42.95A2.39,2.39,0,0,1,65,26.71a3.91,3.91,0,0,1-1.37,1.67c-.18.13-.19.23-.09.42a24.49,24.49,0,0,1,2.5,8,25.48,25.48,0,0,1-4.59,18.66,24.49,24.49,0,0,1-2.39,2.87,1.8,1.8,0,0,1-2.56.14,1.88,1.88,0,0,1-.06-2.69A22,22,0,0,0,60.55,31.2c-.08-.18-.12-.23-.3-.08L48,41.22a.84.84,0,0,0-.32.55,7.25,7.25,0,1,1-5.4-8.41.55.55,0,0,0,.42-.1l12.57-6.58c.49-.26,1-.52,1.47-.77.18-.09.18-.15,0-.3A22,22,0,0,0,45.08,18.9,23.51,23.51,0,0,0,40.29,18.41Z"/></g></g></svg>