<svg xmlns="http://www.w3.org/2000/svg" viewBox="0 0 84.61 113.91"><defs><style>.cls-1{fill:#020202;}</style></defs><title>Asset 6</title><g id="Layer_2" data-name="Layer 2"><g id="Layer_1-2" data-name="Layer 1"><polygon class="cls-1" points="34.48 68.68 34.48 31.96 19.57 19.8 19.57 68.68 34.48 68.68"/><polygon class="cls-1" points="16.78 31.96 1.87 19.8 1.87 68.68 16.78 68.68 16.78 31.96"/><path class="cls-1" d="M1.87,71.63v36.06H66.46V71.63Zm8.51,23.51H6.44V88.38h3.94Zm0-11.12H6.44V77.26h3.94Zm7.46,11.12H13.9V88.38h3.94Zm0-11.12H13.9V77.26h3.94ZM25.3,95.14H21.36V88.38H25.3ZM25.3,84H21.36V77.26H25.3Zm7.46,11.12H28.82V88.38h3.94Zm0-11.12H28.82V77.26h3.94Zm7.46,11.12H36.28V88.38h3.94Zm0-11.12H36.28V77.26h3.94Zm7.46,11.12H43.75V88.38h3.94Zm0-11.12H43.75V77.26h3.94Zm7.46,11.12H51.21V88.38h3.94Zm0-11.12H51.21V77.26h3.94Zm7.46,11.12H58.67V88.38h3.94Zm0-11.12H58.67V77.26h3.94Z"/><path class="cls-1" d="M83.54,12.35C81.38,9.63,77.26,9.74,74.2,11s-5.83,1.87-9.24.76c-4.37-1.42-9.37-1.87-13.3,1.16-2.31,1.79-3.32,4.25-6.65,3.94-2.21-.21-3.86-1.57-6.15-1.69-5.31-.28-5.5,7.3-10.7,7.88l1.31.75c2.69,0,4.62-.35,6.47-2.25,1.25-1.29,1.36-1.6,3.21-1.27a20,20,0,0,0,3.65.52A25.42,25.42,0,0,1,50.51,22a15.3,15.3,0,0,0,6.41.57c2.21-.1,3.31-.92,5.4-1.49a15.68,15.68,0,0,1,4.15-.23c5.16,0,12.26,2.49,16.5-1.64A5,5,0,0,0,83.54,12.35Z"/><path class="cls-1" d="M50.92,0C48-.24,44.72,1.95,42,1.13c-1.45-.43-2-.87-3.72-.8a12.85,12.85,0,0,0-3.95.81c-2.4.81-4.48,2.49-6.88,3.14s-4.79,0-7,.76a9.19,9.19,0,0,0-5.25,5.2c-1,2.15-1.41,3.79-3.7,5-1.74.9-5,1.24-3.8,4.08.32.76.72,2.19,1.43,2.61-.59-2.77.82-3,2.88-3.73,1.76-.62,3.13-1.61,4.89-2.07s2.75-1.34,4.31-2.48c3.44-2.52,7.12-.65,10.71-2.35a18,18,0,0,1,6.83-2.11c2.47-.15,5,.23,7.43-.19,3-.52,12.34-3.73,7-8A4.17,4.17,0,0,0,50.92,0Z"/><rect class="cls-1" y="110.34" width="68.33" height="3.57"/></g></g></svg>