<svg xmlns="http://www.w3.org/2000/svg" viewBox="0 0 73 146.28"><defs><style>.cls-1{fill:#010101;}.cls-2{fill:#fefefe;}.cls-3{fill:#fdfdfd;}</style></defs><title>Asset 2</title><g id="Layer_2" data-name="Layer 2"><g id="Layer_1-2" data-name="Layer 1"><path d="M21.94,51.85q0-18,0-36C21.94,6.42,28.3,0,37.76.1c3.83,0,7.68-.39,11.48.3a14.84,14.84,0,0,1,12.1,13.69c.06.91.06,1.83.06,2.74q0,36.08,0,72.17a3.48,3.48,0,0,0,1.21,2.82c9.35,8.89,12.58,19.74,8.95,32.06-3.53,12-11.88,19.3-24.13,21.8-20,4.07-38.77-12.94-36.9-33.21A31,31,0,0,1,20.9,91.62,3,3,0,0,0,22,89.12Q21.91,70.48,21.94,51.85Z"/><path d="M5,41.44c-.67,0-1.34,0-2,0-1.9-.06-2.75-.9-2.81-2.8,0-.73,0-1.46,0-2.19a2.49,2.49,0,0,1,2.71-2.73c1.64,0,3.29,0,4.93,0A2.29,2.29,0,0,1,10.3,35.9a15.25,15.25,0,0,1,.11,2.54c-.13,2.25-.93,3-3.21,3Z"/><path d="M5.2,25H4.83C-.5,25.36.19,23.37.21,19.85a2.39,2.39,0,0,1,2.51-2.57c1.7-.09,3.41-.08,5.1,0a2.38,2.38,0,0,1,2.49,2.38A17.44,17.44,0,0,1,10.41,22c-.12,2.25-.91,3-3.21,3Z"/><path class="cls-1" d="M5.2,74.27H4.83c-4.34,0-5.35-1.2-4.61-5.55a2.37,2.37,0,0,1,2.5-2.18c1.7,0,3.41,0,5.11,0a2.32,2.32,0,0,1,2.5,2.35,17.9,17.9,0,0,1,.1,2.18c-.09,2.43-.91,3.18-3.4,3.19Z"/><path d="M5.44,83c.12,0,.24,0,.36,0,4.29-.39,5,.79,4.48,5.57a2.27,2.27,0,0,1-2.34,2.13,49.64,49.64,0,0,1-5.28,0A2.42,2.42,0,0,1,.2,88.06c0-.67,0-1.34,0-2C.23,83.77,1,83,3.25,83Z"/><path d="M5.29,57.88H4.93c-5.31.31-4.8-1.61-4.69-5.48a2.24,2.24,0,0,1,2.38-2.27c1.76-.06,3.53-.06,5.29,0a2.31,2.31,0,0,1,2.41,2.25,14.93,14.93,0,0,1,.11,2c-.05,2.68-.85,3.47-3.49,3.5Z"/><path class="cls-2" d="M55.19,53c0,12.6,0,25.2,0,37.81a5.38,5.38,0,0,0,2.14,4.52c8.27,7,11.41,16,8.43,26.46-2.85,10-9.75,16.09-20,17.86-11.54,2-22.36-4.06-27.12-14.81A25,25,0,0,1,26.19,95.2a4.67,4.67,0,0,0,1.92-4c0-24.9.08-49.8-.09-74.7C28,10.13,32.08,5.67,38.4,6.22c1,.09,2.07,0,3.1,0,1.7,0,3.41,0,5.11,0a8.65,8.65,0,0,1,8.57,8.81Q55.21,34.06,55.19,53Z"/><path d="M48.19,63c0,10.72,0,21.44,0,32.16a2.34,2.34,0,0,0,1.56,2.58,19,19,0,0,1-9,36.26A19,19,0,0,1,33.5,97.8c1.45-.64,1.62-1.4,1.62-2.7q0-31.88,0-63.77c0-2.09.2-4.2,2.23-5.24A9.44,9.44,0,0,1,45.9,26c1.9.9,2.3,2.81,2.3,4.82Q48.17,46.93,48.19,63Z"/><path class="cls-3" d="M30,115.59a13.28,13.28,0,0,1,4-9.7c1.22-1.18,2.58-1.23,3.52-.14a2.25,2.25,0,0,1-.24,3.4,8.56,8.56,0,0,0-2.54,7.63,2.27,2.27,0,0,1-1.12,2.48,2.12,2.12,0,0,1-2.4-.09,2,2,0,0,1-.91-1.31C30.18,117,30.06,116.07,30,115.59Z"/></g></g></svg>